<svg xmlns="http://www.w3.org/2000/svg" xmlns:xlink="http://www.w3.org/1999/xlink" width="800" zoomAndPan="magnify" viewBox="0 0 600 599.999999" height="800" preserveAspectRatio="xMidYMid meet" version="1.0"><defs><g/><clipPath id="d27347eb30"><path d="M 236 247 L 458.554688 247 L 458.554688 365.355469 L 236 365.355469 Z M 236 247 " clip-rule="nonzero"/></clipPath><clipPath id="d932e0fe09"><path d="M 176 266 L 261 266 L 261 365.355469 L 176 365.355469 Z M 176 266 " clip-rule="nonzero"/></clipPath><clipPath id="b4457dbc1e"><path d="M 295 123.855469 L 407 123.855469 L 407 280 L 295 280 Z M 295 123.855469 " clip-rule="nonzero"/></clipPath><clipPath id="939c3af642"><path d="M 178 259 L 284 259 L 284 365.355469 L 178 365.355469 Z M 178 259 " clip-rule="nonzero"/></clipPath><clipPath id="15618ac62d"><path d="M 236 300 L 268 300 L 268 365.355469 L 236 365.355469 Z M 236 300 " clip-rule="nonzero"/></clipPath><clipPath id="f3946e2015"><path d="M 117.304688 204 L 293 204 L 293 295 L 117.304688 295 Z M 117.304688 204 " clip-rule="nonzero"/></clipPath></defs><g clip-path="url(#d27347eb30)"><path stroke-linecap="butt" transform="matrix(0.41967, 0, 0, 0.419927, 120.502949, 124.317641)" fill="none" stroke-linejoin="miter" d="M 309.955952 454.456683 L 377.131197 513.153648 L 795.745503 569.720406 L 547.633639 354.309056 L 467.027069 326.644274 " stroke="#000000" stroke-width="6" stroke-opacity="1" stroke-miterlimit="4"/></g><g clip-path="url(#d932e0fe09)"><path stroke-linecap="butt" transform="matrix(0.41967, 0, 0, 0.419927, 120.502949, 124.317641)" fill="none" stroke-linejoin="miter" d="M 167.12595 373.146038 L 295.119131 540.725408 L 300.778345 527.99998 " stroke="#000000" stroke-width="6" stroke-opacity="1" stroke-miterlimit="4"/></g><g clip-path="url(#b4457dbc1e)"><path stroke-linecap="butt" transform="matrix(0.41967, 0, 0, 0.419927, 120.502949, 124.317641)" fill="none" stroke-linejoin="miter" d="M 451.389767 313.751407 L 647.256286 0.499379 L 500.014331 334.625573 " stroke="#000000" stroke-width="6" stroke-opacity="1" stroke-miterlimit="4"/></g><path stroke-linecap="butt" transform="matrix(0.41967, 0, 0, 0.419927, 120.502949, 124.317641)" fill="none" stroke-linejoin="miter" d="M 310.998439 452.400894 L 382.501866 281.900629 L 466.003198 323.900122 Z M 310.998439 452.400894 " stroke="#000000" stroke-width="6" stroke-opacity="1" stroke-miterlimit="4"/><path stroke-linecap="butt" transform="matrix(0.41967, 0, 0, 0.419927, 120.502949, 124.317641)" fill="none" stroke-linejoin="miter" d="M 319.003249 426.903528 L 179.002853 342.402223 L 117.002811 438.401063 " stroke="#000000" stroke-width="6" stroke-opacity="1" stroke-miterlimit="4"/><g clip-path="url(#939c3af642)"><path stroke-linecap="butt" transform="matrix(0.41967, 0, 0, 0.419927, 120.502949, 124.317641)" fill="none" stroke-linejoin="miter" d="M 171.500671 355.397415 L 319.496568 548.902053 L 354.503648 493.898067 " stroke="#000000" stroke-width="6" stroke-opacity="1" stroke-miterlimit="4"/></g><path stroke-linecap="butt" transform="matrix(0.41967, 0, 0, 0.419927, 120.502949, 124.317641)" fill="none" stroke-linejoin="miter" d="M 177.001651 342.904543 L 149.496753 347.397512 L 107.499427 428.903504 L 110.496577 445.396328 L 117.998759 436.903407 " stroke="#000000" stroke-width="6" stroke-opacity="1" stroke-miterlimit="4"/><path stroke-linecap="butt" transform="matrix(0.41967, 0, 0, 0.419927, 120.502949, 124.317641)" fill="none" stroke-linejoin="miter" d="M 166.502319 371.899541 L 115.997556 439.89872 " stroke="#000000" stroke-width="6" stroke-opacity="1" stroke-miterlimit="4"/><g clip-path="url(#15618ac62d)"><path stroke-linecap="butt" transform="matrix(0.41967, 0, 0, 0.419927, 120.502949, 124.317641)" fill="none" stroke-linejoin="miter" d="M 310.998439 454.40087 L 317.002046 544.902102 " stroke="#000000" stroke-width="6" stroke-opacity="1" stroke-miterlimit="4"/></g><path stroke-linecap="butt" transform="matrix(0.41967, 0, 0, 0.419927, 120.502949, 124.317641)" fill="none" stroke-linejoin="miter" d="M 381.49661 283.900605 L 374.497056 282.895966 L 293.499553 410.903721 " stroke="#000000" stroke-width="6" stroke-opacity="1" stroke-miterlimit="4"/><path stroke-linecap="butt" transform="matrix(0.41967, 0, 0, 0.419927, 120.502949, 124.317641)" fill="none" stroke-linejoin="miter" d="M 212.50205 433.898792 L 191.503387 432.401136 L 154.997733 391.8993 " stroke="#000000" stroke-width="6" stroke-opacity="1" stroke-miterlimit="4"/><g clip-path="url(#f3946e2015)"><path stroke-linecap="butt" transform="matrix(0.41967, 0, 0, 0.419927, 120.502949, 124.317641)" fill="none" stroke-linejoin="miter" d="M 135.004325 370.401885 L 0.495601 223.90133 L 366.501554 278.402997 L 375.995631 282.895966 " stroke="#000000" stroke-width="6" stroke-opacity="1" stroke-miterlimit="4"/></g><g fill="#000000" fill-opacity="1"><g transform="translate(17.925, 47.485011)"><g><path d="M 5.953125 -33.59375 C 6.171875 -33.59375 6.398438 -33.546875 6.640625 -33.453125 C 6.890625 -33.359375 7.09375 -33.195312 7.25 -32.96875 L 20.5 -13.109375 L 19.203125 -13.15625 L 32.5 -32.96875 C 32.851562 -33.457031 33.285156 -33.664062 33.796875 -33.59375 C 34.179688 -33.59375 34.507812 -33.457031 34.78125 -33.1875 C 35.050781 -32.914062 35.1875 -32.570312 35.1875 -32.15625 L 35.1875 -1.4375 C 35.1875 -1.050781 35.039062 -0.710938 34.75 -0.421875 C 34.457031 -0.140625 34.109375 0 33.703125 0 C 33.253906 0 32.882812 -0.140625 32.59375 -0.421875 C 32.300781 -0.710938 32.15625 -1.050781 32.15625 -1.4375 L 32.15625 -29.234375 L 33.03125 -29.140625 L 20.875 -10.75 C 20.78125 -10.5625 20.632812 -10.410156 20.4375 -10.296875 C 20.25 -10.179688 20.03125 -10.140625 19.78125 -10.171875 C 19.550781 -10.140625 19.332031 -10.179688 19.125 -10.296875 C 18.914062 -10.410156 18.75 -10.5625 18.625 -10.75 L 6.4375 -29.328125 L 7.34375 -29.953125 L 7.34375 -1.4375 C 7.34375 -1.050781 7.207031 -0.710938 6.9375 -0.421875 C 6.664062 -0.140625 6.320312 0 5.90625 0 C 5.488281 0 5.148438 -0.140625 4.890625 -0.421875 C 4.640625 -0.710938 4.515625 -1.050781 4.515625 -1.4375 L 4.515625 -32.15625 C 4.515625 -32.539062 4.648438 -32.875 4.921875 -33.15625 C 5.191406 -33.445312 5.535156 -33.59375 5.953125 -33.59375 Z M 5.953125 -33.59375 "/></g></g></g><g fill="#000000" fill-opacity="1"><g transform="translate(76.820962, 47.485011)"><g><path d="M 15.75 -29.90625 L 4.078125 -0.90625 C 3.953125 -0.59375 3.773438 -0.351562 3.546875 -0.1875 C 3.328125 -0.03125 3.070312 0.046875 2.78125 0.046875 C 2.332031 0.046875 1.992188 -0.0703125 1.765625 -0.3125 C 1.546875 -0.550781 1.421875 -0.847656 1.390625 -1.203125 C 1.359375 -1.359375 1.375 -1.550781 1.4375 -1.78125 L 14.109375 -32.78125 C 14.273438 -33.132812 14.476562 -33.382812 14.71875 -33.53125 C 14.957031 -33.675781 15.234375 -33.75 15.546875 -33.75 C 15.867188 -33.75 16.148438 -33.660156 16.390625 -33.484375 C 16.628906 -33.304688 16.8125 -33.070312 16.9375 -32.78125 L 29.5625 -1.921875 C 29.625 -1.722656 29.65625 -1.53125 29.65625 -1.34375 C 29.65625 -0.894531 29.507812 -0.550781 29.21875 -0.3125 C 28.9375 -0.0703125 28.601562 0.046875 28.21875 0.046875 C 27.90625 0.046875 27.628906 -0.0390625 27.390625 -0.21875 C 27.148438 -0.394531 26.960938 -0.625 26.828125 -0.90625 L 14.875 -30.09375 Z M 6.859375 -9.703125 L 8.0625 -12.53125 L 22.9375 -12.53125 L 23.515625 -9.703125 Z M 6.859375 -9.703125 "/></g></g></g><g fill="#000000" fill-opacity="1"><g transform="translate(127.076929, 47.485011)"><g><path d="M 13.78125 0.484375 C 11.34375 0.515625 9.226562 0.128906 7.4375 -0.671875 C 5.644531 -1.472656 3.929688 -2.671875 2.296875 -4.265625 C 2.140625 -4.398438 2.003906 -4.5625 1.890625 -4.75 C 1.785156 -4.945312 1.734375 -5.171875 1.734375 -5.421875 C 1.734375 -5.804688 1.882812 -6.15625 2.1875 -6.46875 C 2.488281 -6.789062 2.832031 -6.953125 3.21875 -6.953125 C 3.601562 -6.953125 3.953125 -6.796875 4.265625 -6.484375 C 5.515625 -5.140625 6.929688 -4.113281 8.515625 -3.40625 C 10.097656 -2.707031 11.800781 -2.359375 13.625 -2.359375 C 15.164062 -2.359375 16.535156 -2.597656 17.734375 -3.078125 C 18.929688 -3.554688 19.878906 -4.242188 20.578125 -5.140625 C 21.285156 -6.035156 21.640625 -7.070312 21.640625 -8.25 C 21.640625 -9.726562 21.238281 -10.921875 20.4375 -11.828125 C 19.644531 -12.742188 18.59375 -13.492188 17.28125 -14.078125 C 15.96875 -14.671875 14.507812 -15.210938 12.90625 -15.703125 C 11.59375 -16.078125 10.34375 -16.515625 9.15625 -17.015625 C 7.976562 -17.515625 6.925781 -18.125 6 -18.84375 C 5.070312 -19.5625 4.351562 -20.445312 3.84375 -21.5 C 3.332031 -22.5625 3.078125 -23.84375 3.078125 -25.34375 C 3.078125 -27.039062 3.523438 -28.546875 4.421875 -29.859375 C 5.316406 -31.171875 6.585938 -32.203125 8.234375 -32.953125 C 9.878906 -33.703125 11.789062 -34.078125 13.96875 -34.078125 C 15.851562 -34.078125 17.664062 -33.753906 19.40625 -33.109375 C 21.15625 -32.472656 22.539062 -31.53125 23.5625 -30.28125 C 24.039062 -29.769531 24.28125 -29.304688 24.28125 -28.890625 C 24.28125 -28.578125 24.117188 -28.257812 23.796875 -27.9375 C 23.484375 -27.613281 23.132812 -27.453125 22.75 -27.453125 C 22.425781 -27.453125 22.15625 -27.566406 21.9375 -27.796875 C 21.394531 -28.460938 20.707031 -29.0625 19.875 -29.59375 C 19.039062 -30.125 18.117188 -30.53125 17.109375 -30.8125 C 16.097656 -31.101562 15.050781 -31.25 13.96875 -31.25 C 12.46875 -31.25 11.113281 -31.015625 9.90625 -30.546875 C 8.707031 -30.085938 7.765625 -29.425781 7.078125 -28.5625 C 6.390625 -27.695312 6.046875 -26.65625 6.046875 -25.4375 C 6.046875 -24.09375 6.429688 -22.988281 7.203125 -22.125 C 7.972656 -21.257812 8.976562 -20.546875 10.21875 -19.984375 C 11.46875 -19.429688 12.796875 -18.914062 14.203125 -18.4375 C 15.578125 -18.050781 16.894531 -17.609375 18.15625 -17.109375 C 19.425781 -16.617188 20.546875 -16.003906 21.515625 -15.265625 C 22.492188 -14.523438 23.265625 -13.59375 23.828125 -12.46875 C 24.390625 -11.351562 24.671875 -9.945312 24.671875 -8.25 C 24.671875 -6.625 24.207031 -5.15625 23.28125 -3.84375 C 22.351562 -2.53125 21.082031 -1.488281 19.46875 -0.71875 C 17.851562 0.0507812 15.957031 0.453125 13.78125 0.484375 Z M 13.78125 0.484375 "/></g></g></g><g fill="#000000" fill-opacity="1"><g transform="translate(173.252903, 47.485011)"><g><path d="M 13.78125 0.484375 C 11.34375 0.515625 9.226562 0.128906 7.4375 -0.671875 C 5.644531 -1.472656 3.929688 -2.671875 2.296875 -4.265625 C 2.140625 -4.398438 2.003906 -4.5625 1.890625 -4.75 C 1.785156 -4.945312 1.734375 -5.171875 1.734375 -5.421875 C 1.734375 -5.804688 1.882812 -6.15625 2.1875 -6.46875 C 2.488281 -6.789062 2.832031 -6.953125 3.21875 -6.953125 C 3.601562 -6.953125 3.953125 -6.796875 4.265625 -6.484375 C 5.515625 -5.140625 6.929688 -4.113281 8.515625 -3.40625 C 10.097656 -2.707031 11.800781 -2.359375 13.625 -2.359375 C 15.164062 -2.359375 16.535156 -2.597656 17.734375 -3.078125 C 18.929688 -3.554688 19.878906 -4.242188 20.578125 -5.140625 C 21.285156 -6.035156 21.640625 -7.070312 21.640625 -8.25 C 21.640625 -9.726562 21.238281 -10.921875 20.4375 -11.828125 C 19.644531 -12.742188 18.59375 -13.492188 17.28125 -14.078125 C 15.96875 -14.671875 14.507812 -15.210938 12.90625 -15.703125 C 11.59375 -16.078125 10.34375 -16.515625 9.15625 -17.015625 C 7.976562 -17.515625 6.925781 -18.125 6 -18.84375 C 5.070312 -19.5625 4.351562 -20.445312 3.84375 -21.5 C 3.332031 -22.5625 3.078125 -23.84375 3.078125 -25.34375 C 3.078125 -27.039062 3.523438 -28.546875 4.421875 -29.859375 C 5.316406 -31.171875 6.585938 -32.203125 8.234375 -32.953125 C 9.878906 -33.703125 11.789062 -34.078125 13.96875 -34.078125 C 15.851562 -34.078125 17.664062 -33.753906 19.40625 -33.109375 C 21.15625 -32.472656 22.539062 -31.53125 23.5625 -30.28125 C 24.039062 -29.769531 24.28125 -29.304688 24.28125 -28.890625 C 24.28125 -28.578125 24.117188 -28.257812 23.796875 -27.9375 C 23.484375 -27.613281 23.132812 -27.453125 22.75 -27.453125 C 22.425781 -27.453125 22.15625 -27.566406 21.9375 -27.796875 C 21.394531 -28.460938 20.707031 -29.0625 19.875 -29.59375 C 19.039062 -30.125 18.117188 -30.53125 17.109375 -30.8125 C 16.097656 -31.101562 15.050781 -31.25 13.96875 -31.25 C 12.46875 -31.25 11.113281 -31.015625 9.90625 -30.546875 C 8.707031 -30.085938 7.765625 -29.425781 7.078125 -28.5625 C 6.390625 -27.695312 6.046875 -26.65625 6.046875 -25.4375 C 6.046875 -24.09375 6.429688 -22.988281 7.203125 -22.125 C 7.972656 -21.257812 8.976562 -20.546875 10.21875 -19.984375 C 11.46875 -19.429688 12.796875 -18.914062 14.203125 -18.4375 C 15.578125 -18.050781 16.894531 -17.609375 18.15625 -17.109375 C 19.425781 -16.617188 20.546875 -16.003906 21.515625 -15.265625 C 22.492188 -14.523438 23.265625 -13.59375 23.828125 -12.46875 C 24.390625 -11.351562 24.671875 -9.945312 24.671875 -8.25 C 24.671875 -6.625 24.207031 -5.15625 23.28125 -3.84375 C 22.351562 -2.53125 21.082031 -1.488281 19.46875 -0.71875 C 17.851562 0.0507812 15.957031 0.453125 13.78125 0.484375 Z M 13.78125 0.484375 "/></g></g></g><g fill="#000000" fill-opacity="1"><g transform="translate(219.428877, 47.485011)"><g><path d="M 7.53125 -1.484375 C 7.5 -1.066406 7.332031 -0.710938 7.03125 -0.421875 C 6.726562 -0.140625 6.382812 0 6 0 C 5.550781 0 5.191406 -0.140625 4.921875 -0.421875 C 4.648438 -0.710938 4.515625 -1.066406 4.515625 -1.484375 L 4.515625 -32.109375 C 4.515625 -32.523438 4.65625 -32.875 4.9375 -33.15625 C 5.226562 -33.445312 5.597656 -33.59375 6.046875 -33.59375 C 6.429688 -33.59375 6.773438 -33.445312 7.078125 -33.15625 C 7.378906 -32.875 7.53125 -32.523438 7.53125 -32.109375 Z M 7.53125 -1.484375 "/></g></g></g><g fill="#000000" fill-opacity="1"><g transform="translate(250.628858, 47.485011)"><g><path d="M 5.953125 -33.59375 C 6.171875 -33.59375 6.398438 -33.546875 6.640625 -33.453125 C 6.890625 -33.359375 7.09375 -33.195312 7.25 -32.96875 L 20.5 -13.109375 L 19.203125 -13.15625 L 32.5 -32.96875 C 32.851562 -33.457031 33.285156 -33.664062 33.796875 -33.59375 C 34.179688 -33.59375 34.507812 -33.457031 34.78125 -33.1875 C 35.050781 -32.914062 35.1875 -32.570312 35.1875 -32.15625 L 35.1875 -1.4375 C 35.1875 -1.050781 35.039062 -0.710938 34.75 -0.421875 C 34.457031 -0.140625 34.109375 0 33.703125 0 C 33.253906 0 32.882812 -0.140625 32.59375 -0.421875 C 32.300781 -0.710938 32.15625 -1.050781 32.15625 -1.4375 L 32.15625 -29.234375 L 33.03125 -29.140625 L 20.875 -10.75 C 20.78125 -10.5625 20.632812 -10.410156 20.4375 -10.296875 C 20.25 -10.179688 20.03125 -10.140625 19.78125 -10.171875 C 19.550781 -10.140625 19.332031 -10.179688 19.125 -10.296875 C 18.914062 -10.410156 18.75 -10.5625 18.625 -10.75 L 6.4375 -29.328125 L 7.34375 -29.953125 L 7.34375 -1.4375 C 7.34375 -1.050781 7.207031 -0.710938 6.9375 -0.421875 C 6.664062 -0.140625 6.320312 0 5.90625 0 C 5.488281 0 5.148438 -0.140625 4.890625 -0.421875 C 4.640625 -0.710938 4.515625 -1.050781 4.515625 -1.4375 L 4.515625 -32.15625 C 4.515625 -32.539062 4.648438 -32.875 4.921875 -33.15625 C 5.191406 -33.445312 5.535156 -33.59375 5.953125 -33.59375 Z M 5.953125 -33.59375 "/></g></g></g><g fill="#000000" fill-opacity="1"><g transform="translate(309.52482, 47.485011)"><g><path d="M 7.53125 -1.484375 C 7.5 -1.066406 7.332031 -0.710938 7.03125 -0.421875 C 6.726562 -0.140625 6.382812 0 6 0 C 5.550781 0 5.191406 -0.140625 4.921875 -0.421875 C 4.648438 -0.710938 4.515625 -1.066406 4.515625 -1.484375 L 4.515625 -32.109375 C 4.515625 -32.523438 4.65625 -32.875 4.9375 -33.15625 C 5.226562 -33.445312 5.597656 -33.59375 6.046875 -33.59375 C 6.429688 -33.59375 6.773438 -33.445312 7.078125 -33.15625 C 7.378906 -32.875 7.53125 -32.523438 7.53125 -32.109375 Z M 7.53125 -1.484375 "/></g></g></g><g fill="#000000" fill-opacity="1"><g transform="translate(340.724801, 47.485011)"><g><path d="M 23.09375 -2.828125 C 23.46875 -2.828125 23.800781 -2.691406 24.09375 -2.421875 C 24.382812 -2.148438 24.53125 -1.820312 24.53125 -1.4375 C 24.53125 -1.019531 24.382812 -0.675781 24.09375 -0.40625 C 23.800781 -0.132812 23.46875 0 23.09375 0 L 5.953125 0 C 5.535156 0 5.191406 -0.140625 4.921875 -0.421875 C 4.648438 -0.710938 4.515625 -1.050781 4.515625 -1.4375 L 4.515625 -32.15625 C 4.515625 -32.539062 4.65625 -32.875 4.9375 -33.15625 C 5.226562 -33.445312 5.597656 -33.59375 6.046875 -33.59375 C 6.429688 -33.59375 6.773438 -33.445312 7.078125 -33.15625 C 7.378906 -32.875 7.53125 -32.539062 7.53125 -32.15625 L 7.53125 -2.015625 L 6.625 -2.828125 Z M 23.09375 -2.828125 "/></g></g></g><g fill="#000000" fill-opacity="1"><g transform="translate(385.460798, 47.485011)"><g><path d="M 7.53125 -1.484375 C 7.5 -1.066406 7.332031 -0.710938 7.03125 -0.421875 C 6.726562 -0.140625 6.382812 0 6 0 C 5.550781 0 5.191406 -0.140625 4.921875 -0.421875 C 4.648438 -0.710938 4.515625 -1.066406 4.515625 -1.484375 L 4.515625 -32.109375 C 4.515625 -32.523438 4.65625 -32.875 4.9375 -33.15625 C 5.226562 -33.445312 5.597656 -33.59375 6.046875 -33.59375 C 6.429688 -33.59375 6.773438 -33.445312 7.078125 -33.15625 C 7.378906 -32.875 7.53125 -32.523438 7.53125 -32.109375 Z M 7.53125 -1.484375 "/></g></g></g><g fill="#000000" fill-opacity="1"><g transform="translate(416.660797, 47.485011)"><g><path d="M 15.75 -29.90625 L 4.078125 -0.90625 C 3.953125 -0.59375 3.773438 -0.351562 3.546875 -0.1875 C 3.328125 -0.03125 3.070312 0.046875 2.78125 0.046875 C 2.332031 0.046875 1.992188 -0.0703125 1.765625 -0.3125 C 1.546875 -0.550781 1.421875 -0.847656 1.390625 -1.203125 C 1.359375 -1.359375 1.375 -1.550781 1.4375 -1.78125 L 14.109375 -32.78125 C 14.273438 -33.132812 14.476562 -33.382812 14.71875 -33.53125 C 14.957031 -33.675781 15.234375 -33.75 15.546875 -33.75 C 15.867188 -33.75 16.148438 -33.660156 16.390625 -33.484375 C 16.628906 -33.304688 16.8125 -33.070312 16.9375 -32.78125 L 29.5625 -1.921875 C 29.625 -1.722656 29.65625 -1.53125 29.65625 -1.34375 C 29.65625 -0.894531 29.507812 -0.550781 29.21875 -0.3125 C 28.9375 -0.0703125 28.601562 0.046875 28.21875 0.046875 C 27.90625 0.046875 27.628906 -0.0390625 27.390625 -0.21875 C 27.148438 -0.394531 26.960938 -0.625 26.828125 -0.90625 L 14.875 -30.09375 Z M 6.859375 -9.703125 L 8.0625 -12.53125 L 22.9375 -12.53125 L 23.515625 -9.703125 Z M 6.859375 -9.703125 "/></g></g></g><g fill="#000000" fill-opacity="1"><g transform="translate(466.916763, 47.485011)"><g><path d="M 29.09375 -33.59375 C 29.507812 -33.59375 29.835938 -33.460938 30.078125 -33.203125 C 30.316406 -32.953125 30.4375 -32.632812 30.4375 -32.25 L 30.4375 -1.53125 C 30.4375 -1.050781 30.28125 -0.675781 29.96875 -0.40625 C 29.664062 -0.132812 29.320312 0 28.9375 0 C 28.75 0 28.539062 -0.0351562 28.3125 -0.109375 C 28.09375 -0.191406 27.921875 -0.316406 27.796875 -0.484375 L 6.390625 -29.328125 L 7.203125 -29.765625 L 7.203125 -1.296875 C 7.203125 -0.941406 7.070312 -0.632812 6.8125 -0.375 C 6.5625 -0.125 6.242188 0 5.859375 0 C 5.441406 0 5.113281 -0.125 4.875 -0.375 C 4.632812 -0.632812 4.515625 -0.941406 4.515625 -1.296875 L 4.515625 -32.15625 C 4.515625 -32.632812 4.65625 -32.992188 4.9375 -33.234375 C 5.226562 -33.472656 5.550781 -33.59375 5.90625 -33.59375 C 6.09375 -33.59375 6.296875 -33.550781 6.515625 -33.46875 C 6.742188 -33.394531 6.925781 -33.265625 7.0625 -33.078125 L 28.21875 -4.5625 L 27.75 -3.703125 L 27.75 -32.25 C 27.75 -32.632812 27.882812 -32.953125 28.15625 -33.203125 C 28.425781 -33.460938 28.738281 -33.59375 29.09375 -33.59375 Z M 29.09375 -33.59375 "/></g></g></g><g fill="#000000" fill-opacity="1"><g transform="translate(521.060719, 47.485011)"><g><path d="M 34.46875 -16.796875 C 34.46875 -14.273438 34.070312 -11.960938 33.28125 -9.859375 C 32.5 -7.765625 31.390625 -5.941406 29.953125 -4.390625 C 28.515625 -2.835938 26.8125 -1.632812 24.84375 -0.78125 C 22.875 0.0625 20.722656 0.484375 18.390625 0.484375 C 16.046875 0.484375 13.890625 0.0625 11.921875 -0.78125 C 9.953125 -1.632812 8.25 -2.835938 6.8125 -4.390625 C 5.375 -5.941406 4.257812 -7.765625 3.46875 -9.859375 C 2.6875 -11.960938 2.296875 -14.273438 2.296875 -16.796875 C 2.296875 -19.328125 2.6875 -21.640625 3.46875 -23.734375 C 4.257812 -25.828125 5.375 -27.648438 6.8125 -29.203125 C 8.25 -30.753906 9.953125 -31.953125 11.921875 -32.796875 C 13.890625 -33.648438 16.046875 -34.078125 18.390625 -34.078125 C 20.722656 -34.078125 22.875 -33.648438 24.84375 -32.796875 C 26.8125 -31.953125 28.515625 -30.753906 29.953125 -29.203125 C 31.390625 -27.648438 32.5 -25.828125 33.28125 -23.734375 C 34.070312 -21.640625 34.46875 -19.328125 34.46875 -16.796875 Z M 31.390625 -16.796875 C 31.390625 -19.648438 30.835938 -22.15625 29.734375 -24.3125 C 28.628906 -26.46875 27.097656 -28.15625 25.140625 -29.375 C 23.191406 -30.59375 20.941406 -31.203125 18.390625 -31.203125 C 15.859375 -31.203125 13.609375 -30.59375 11.640625 -29.375 C 9.671875 -28.15625 8.132812 -26.46875 7.03125 -24.3125 C 5.925781 -22.15625 5.375 -19.648438 5.375 -16.796875 C 5.375 -13.953125 5.925781 -11.445312 7.03125 -9.28125 C 8.132812 -7.125 9.671875 -5.4375 11.640625 -4.21875 C 13.609375 -3.007812 15.859375 -2.40625 18.390625 -2.40625 C 20.941406 -2.40625 23.191406 -3.007812 25.140625 -4.21875 C 27.097656 -5.4375 28.628906 -7.125 29.734375 -9.28125 C 30.835938 -11.445312 31.390625 -13.953125 31.390625 -16.796875 Z M 31.390625 -16.796875 "/></g></g></g><g fill="#000000" fill-opacity="1"><g transform="translate(22.774139, 94.495161)"><g><path d="M 15.75 -29.90625 L 4.078125 -0.90625 C 3.953125 -0.59375 3.773438 -0.351562 3.546875 -0.1875 C 3.328125 -0.03125 3.070312 0.046875 2.78125 0.046875 C 2.332031 0.046875 1.992188 -0.0703125 1.765625 -0.3125 C 1.546875 -0.550781 1.421875 -0.847656 1.390625 -1.203125 C 1.359375 -1.359375 1.375 -1.550781 1.4375 -1.78125 L 14.109375 -32.78125 C 14.273438 -33.132812 14.476562 -33.382812 14.71875 -33.53125 C 14.957031 -33.675781 15.234375 -33.75 15.546875 -33.75 C 15.867188 -33.75 16.148438 -33.660156 16.390625 -33.484375 C 16.628906 -33.304688 16.8125 -33.070312 16.9375 -32.78125 L 29.5625 -1.921875 C 29.625 -1.722656 29.65625 -1.53125 29.65625 -1.34375 C 29.65625 -0.894531 29.507812 -0.550781 29.21875 -0.3125 C 28.9375 -0.0703125 28.601562 0.046875 28.21875 0.046875 C 27.90625 0.046875 27.628906 -0.0390625 27.390625 -0.21875 C 27.148438 -0.394531 26.960938 -0.625 26.828125 -0.90625 L 14.875 -30.09375 Z M 6.859375 -9.703125 L 8.0625 -12.53125 L 22.9375 -12.53125 L 23.515625 -9.703125 Z M 6.859375 -9.703125 "/></g></g></g><g fill="#000000" fill-opacity="1"><g transform="translate(20.824139, 161.695158)"><g><path d="M 29.09375 -33.59375 C 29.507812 -33.59375 29.835938 -33.460938 30.078125 -33.203125 C 30.316406 -32.953125 30.4375 -32.632812 30.4375 -32.25 L 30.4375 -1.53125 C 30.4375 -1.050781 30.28125 -0.675781 29.96875 -0.40625 C 29.664062 -0.132812 29.320312 0 28.9375 0 C 28.75 0 28.539062 -0.0351562 28.3125 -0.109375 C 28.09375 -0.191406 27.921875 -0.316406 27.796875 -0.484375 L 6.390625 -29.328125 L 7.203125 -29.765625 L 7.203125 -1.296875 C 7.203125 -0.941406 7.070312 -0.632812 6.8125 -0.375 C 6.5625 -0.125 6.242188 0 5.859375 0 C 5.441406 0 5.113281 -0.125 4.875 -0.375 C 4.632812 -0.632812 4.515625 -0.941406 4.515625 -1.296875 L 4.515625 -32.15625 C 4.515625 -32.632812 4.65625 -32.992188 4.9375 -33.234375 C 5.226562 -33.472656 5.550781 -33.59375 5.90625 -33.59375 C 6.09375 -33.59375 6.296875 -33.550781 6.515625 -33.46875 C 6.742188 -33.394531 6.925781 -33.265625 7.0625 -33.078125 L 28.21875 -4.5625 L 27.75 -3.703125 L 27.75 -32.25 C 27.75 -32.632812 27.882812 -32.953125 28.15625 -33.203125 C 28.425781 -33.460938 28.738281 -33.59375 29.09375 -33.59375 Z M 29.09375 -33.59375 "/></g></g></g><g fill="#000000" fill-opacity="1"><g transform="translate(22.624139, 228.895155)"><g><path d="M 29.046875 -31.109375 C 29.421875 -30.847656 29.640625 -30.515625 29.703125 -30.109375 C 29.773438 -29.710938 29.679688 -29.320312 29.421875 -28.9375 C 29.203125 -28.65625 28.914062 -28.5 28.5625 -28.46875 C 28.207031 -28.4375 27.867188 -28.5 27.546875 -28.65625 C 26.335938 -29.457031 25.035156 -30.082031 23.640625 -30.53125 C 22.242188 -30.976562 20.75 -31.203125 19.15625 -31.203125 C 17.195312 -31.203125 15.378906 -30.859375 13.703125 -30.171875 C 12.023438 -29.484375 10.5625 -28.488281 9.3125 -27.1875 C 8.0625 -25.894531 7.09375 -24.367188 6.40625 -22.609375 C 5.71875 -20.847656 5.375 -18.910156 5.375 -16.796875 C 5.375 -14.617188 5.722656 -12.640625 6.421875 -10.859375 C 7.128906 -9.085938 8.113281 -7.5625 9.375 -6.28125 C 10.644531 -5.007812 12.109375 -4.035156 13.765625 -3.359375 C 15.429688 -2.691406 17.226562 -2.359375 19.15625 -2.359375 C 20.71875 -2.359375 22.195312 -2.582031 23.59375 -3.03125 C 24.988281 -3.476562 26.289062 -4.082031 27.5 -4.84375 C 27.820312 -5.039062 28.164062 -5.113281 28.53125 -5.0625 C 28.90625 -5.007812 29.203125 -4.828125 29.421875 -4.515625 C 29.710938 -4.160156 29.816406 -3.78125 29.734375 -3.375 C 29.648438 -2.976562 29.4375 -2.671875 29.09375 -2.453125 C 28.289062 -1.941406 27.34375 -1.460938 26.25 -1.015625 C 25.164062 -0.566406 24.015625 -0.207031 22.796875 0.0625 C 21.578125 0.34375 20.363281 0.484375 19.15625 0.484375 C 16.851562 0.484375 14.691406 0.0664062 12.671875 -0.765625 C 10.648438 -1.597656 8.851562 -2.773438 7.28125 -4.296875 C 5.71875 -5.816406 4.492188 -7.628906 3.609375 -9.734375 C 2.734375 -11.847656 2.296875 -14.203125 2.296875 -16.796875 C 2.296875 -19.296875 2.726562 -21.59375 3.59375 -23.6875 C 4.457031 -25.78125 5.65625 -27.59375 7.1875 -29.125 C 8.726562 -30.664062 10.519531 -31.867188 12.5625 -32.734375 C 14.613281 -33.597656 16.8125 -34.03125 19.15625 -34.03125 C 20.976562 -34.03125 22.734375 -33.773438 24.421875 -33.265625 C 26.117188 -32.753906 27.660156 -32.035156 29.046875 -31.109375 Z M 29.046875 -31.109375 "/></g></g></g><g fill="#000000" fill-opacity="1"><g transform="translate(73.174137, 228.895155)"><g/></g></g><g fill="#000000" fill-opacity="1"><g transform="translate(105.478115, 228.895155)"><g/></g></g><g fill="#000000" fill-opacity="1"><g transform="translate(32.299139, 296.095152)"><g><path d="M 7.53125 -1.484375 C 7.5 -1.066406 7.332031 -0.710938 7.03125 -0.421875 C 6.726562 -0.140625 6.382812 0 6 0 C 5.550781 0 5.191406 -0.140625 4.921875 -0.421875 C 4.648438 -0.710938 4.515625 -1.066406 4.515625 -1.484375 L 4.515625 -32.109375 C 4.515625 -32.523438 4.65625 -32.875 4.9375 -33.15625 C 5.226562 -33.445312 5.597656 -33.59375 6.046875 -33.59375 C 6.429688 -33.59375 6.773438 -33.445312 7.078125 -33.15625 C 7.378906 -32.875 7.53125 -32.523438 7.53125 -32.109375 Z M 7.53125 -1.484375 "/></g></g></g><g fill="#000000" fill-opacity="1"><g transform="translate(20.824139, 363.295149)"><g><path d="M 29.09375 -33.59375 C 29.507812 -33.59375 29.835938 -33.460938 30.078125 -33.203125 C 30.316406 -32.953125 30.4375 -32.632812 30.4375 -32.25 L 30.4375 -1.53125 C 30.4375 -1.050781 30.28125 -0.675781 29.96875 -0.40625 C 29.664062 -0.132812 29.320312 0 28.9375 0 C 28.75 0 28.539062 -0.0351562 28.3125 -0.109375 C 28.09375 -0.191406 27.921875 -0.316406 27.796875 -0.484375 L 6.390625 -29.328125 L 7.203125 -29.765625 L 7.203125 -1.296875 C 7.203125 -0.941406 7.070312 -0.632812 6.8125 -0.375 C 6.5625 -0.125 6.242188 0 5.859375 0 C 5.441406 0 5.113281 -0.125 4.875 -0.375 C 4.632812 -0.632812 4.515625 -0.941406 4.515625 -1.296875 L 4.515625 -32.15625 C 4.515625 -32.632812 4.65625 -32.992188 4.9375 -33.234375 C 5.226562 -33.472656 5.550781 -33.59375 5.90625 -33.59375 C 6.09375 -33.59375 6.296875 -33.550781 6.515625 -33.46875 C 6.742188 -33.394531 6.925781 -33.265625 7.0625 -33.078125 L 28.21875 -4.5625 L 27.75 -3.703125 L 27.75 -32.25 C 27.75 -32.632812 27.882812 -32.953125 28.15625 -33.203125 C 28.425781 -33.460938 28.738281 -33.59375 29.09375 -33.59375 Z M 29.09375 -33.59375 "/></g></g></g><g fill="#000000" fill-opacity="1"><g transform="translate(32.299139, 430.495146)"><g><path d="M 7.53125 -1.484375 C 7.5 -1.066406 7.332031 -0.710938 7.03125 -0.421875 C 6.726562 -0.140625 6.382812 0 6 0 C 5.550781 0 5.191406 -0.140625 4.921875 -0.421875 C 4.648438 -0.710938 4.515625 -1.066406 4.515625 -1.484375 L 4.515625 -32.109375 C 4.515625 -32.523438 4.65625 -32.875 4.9375 -33.15625 C 5.226562 -33.445312 5.597656 -33.59375 6.046875 -33.59375 C 6.429688 -33.59375 6.773438 -33.445312 7.078125 -33.15625 C 7.378906 -32.875 7.53125 -32.523438 7.53125 -32.109375 Z M 7.53125 -1.484375 "/></g></g></g><g fill="#000000" fill-opacity="1"><g transform="translate(167.248349, 509.05146)"><g><path d="M 16.8125 -2.0625 C 17.09375 -2.0625 17.335938 -1.960938 17.546875 -1.765625 C 17.765625 -1.566406 17.875 -1.328125 17.875 -1.046875 C 17.875 -0.742188 17.765625 -0.492188 17.546875 -0.296875 C 17.335938 -0.0976562 17.09375 0 16.8125 0 L 4.34375 0 C 4.03125 0 3.773438 -0.101562 3.578125 -0.3125 C 3.378906 -0.519531 3.28125 -0.765625 3.28125 -1.046875 L 3.28125 -23.421875 C 3.28125 -23.703125 3.382812 -23.945312 3.59375 -24.15625 C 3.8125 -24.375 4.082031 -24.484375 4.40625 -24.484375 C 4.6875 -24.484375 4.9375 -24.375 5.15625 -24.15625 C 5.375 -23.945312 5.484375 -23.703125 5.484375 -23.421875 L 5.484375 -1.46875 L 4.828125 -2.0625 Z M 16.8125 -2.0625 "/></g></g></g><g fill="#000000" fill-opacity="1"><g transform="translate(199.829489, 509.05146)"><g><path d="M 17.421875 -17.875 C 17.722656 -17.875 17.972656 -17.765625 18.171875 -17.546875 C 18.367188 -17.335938 18.46875 -17.082031 18.46875 -16.78125 L 18.46875 -1.046875 C 18.46875 -0.765625 18.359375 -0.519531 18.140625 -0.3125 C 17.929688 -0.101562 17.691406 0 17.421875 0 C 17.109375 0 16.851562 -0.101562 16.65625 -0.3125 C 16.457031 -0.519531 16.359375 -0.765625 16.359375 -1.046875 L 16.359375 -5.203125 L 16.953125 -5.484375 C 16.953125 -4.835938 16.769531 -4.175781 16.40625 -3.5 C 16.050781 -2.820312 15.554688 -2.191406 14.921875 -1.609375 C 14.296875 -1.023438 13.554688 -0.550781 12.703125 -0.1875 C 11.859375 0.164062 10.945312 0.34375 9.96875 0.34375 C 8.382812 0.34375 6.96875 -0.0625 5.71875 -0.875 C 4.46875 -1.6875 3.488281 -2.800781 2.78125 -4.21875 C 2.070312 -5.644531 1.71875 -7.242188 1.71875 -9.015625 C 1.71875 -10.835938 2.078125 -12.441406 2.796875 -13.828125 C 3.515625 -15.210938 4.492188 -16.300781 5.734375 -17.09375 C 6.972656 -17.882812 8.375 -18.28125 9.9375 -18.28125 C 10.9375 -18.28125 11.875 -18.101562 12.75 -17.75 C 13.625 -17.40625 14.382812 -16.929688 15.03125 -16.328125 C 15.6875 -15.722656 16.191406 -15.03125 16.546875 -14.25 C 16.910156 -13.46875 17.09375 -12.65625 17.09375 -11.8125 L 16.359375 -12.34375 L 16.359375 -16.78125 C 16.359375 -17.082031 16.457031 -17.335938 16.65625 -17.546875 C 16.851562 -17.765625 17.109375 -17.875 17.421875 -17.875 Z M 10.140625 -1.609375 C 11.378906 -1.609375 12.472656 -1.925781 13.421875 -2.5625 C 14.378906 -3.207031 15.128906 -4.09375 15.671875 -5.21875 C 16.222656 -6.351562 16.5 -7.617188 16.5 -9.015625 C 16.5 -10.390625 16.222656 -11.625 15.671875 -12.71875 C 15.128906 -13.820312 14.378906 -14.695312 13.421875 -15.34375 C 12.472656 -16 11.378906 -16.328125 10.140625 -16.328125 C 8.929688 -16.328125 7.84375 -16.007812 6.875 -15.375 C 5.90625 -14.75 5.144531 -13.890625 4.59375 -12.796875 C 4.050781 -11.703125 3.78125 -10.441406 3.78125 -9.015625 C 3.78125 -7.617188 4.050781 -6.351562 4.59375 -5.21875 C 5.144531 -4.09375 5.894531 -3.207031 6.84375 -2.5625 C 7.800781 -1.925781 8.898438 -1.609375 10.140625 -1.609375 Z M 10.140625 -1.609375 "/></g></g></g><g fill="#000000" fill-opacity="1"><g transform="translate(234.997075, 509.05146)"><g/></g></g><g fill="#000000" fill-opacity="1"><g transform="translate(258.525642, 509.05146)"><g><path d="M 14.265625 0.34375 C 12.472656 0.34375 10.804688 0.03125 9.265625 -0.59375 C 7.722656 -1.21875 6.382812 -2.097656 5.25 -3.234375 C 4.125 -4.367188 3.242188 -5.703125 2.609375 -7.234375 C 1.984375 -8.773438 1.671875 -10.441406 1.671875 -12.234375 C 1.671875 -14.035156 1.984375 -15.703125 2.609375 -17.234375 C 3.242188 -18.773438 4.125 -20.109375 5.25 -21.234375 C 6.382812 -22.367188 7.722656 -23.25 9.265625 -23.875 C 10.804688 -24.507812 12.472656 -24.828125 14.265625 -24.828125 C 15.503906 -24.828125 16.695312 -24.679688 17.84375 -24.390625 C 19 -24.097656 20.035156 -23.660156 20.953125 -23.078125 C 21.109375 -22.960938 21.226562 -22.828125 21.3125 -22.671875 C 21.394531 -22.523438 21.4375 -22.367188 21.4375 -22.203125 C 21.4375 -21.878906 21.332031 -21.617188 21.125 -21.421875 C 20.914062 -21.222656 20.691406 -21.125 20.453125 -21.125 C 20.335938 -21.125 20.226562 -21.140625 20.125 -21.171875 C 20.019531 -21.203125 19.921875 -21.242188 19.828125 -21.296875 C 19.035156 -21.734375 18.171875 -22.082031 17.234375 -22.34375 C 16.304688 -22.601562 15.316406 -22.734375 14.265625 -22.734375 C 12.265625 -22.734375 10.484375 -22.273438 8.921875 -21.359375 C 7.359375 -20.453125 6.132812 -19.207031 5.25 -17.625 C 4.363281 -16.039062 3.921875 -14.242188 3.921875 -12.234375 C 3.921875 -10.234375 4.363281 -8.4375 5.25 -6.84375 C 6.132812 -5.257812 7.359375 -4.015625 8.921875 -3.109375 C 10.484375 -2.203125 12.265625 -1.75 14.265625 -1.75 C 15.316406 -1.75 16.367188 -1.898438 17.421875 -2.203125 C 18.484375 -2.503906 19.398438 -2.910156 20.171875 -3.421875 L 20 -2.6875 L 20 -10.734375 L 20.53125 -10.25 L 14.484375 -10.25 C 14.171875 -10.25 13.910156 -10.351562 13.703125 -10.5625 C 13.492188 -10.769531 13.390625 -11.015625 13.390625 -11.296875 C 13.390625 -11.617188 13.492188 -11.875 13.703125 -12.0625 C 13.910156 -12.25 14.171875 -12.34375 14.484375 -12.34375 L 21.15625 -12.34375 C 21.457031 -12.34375 21.707031 -12.242188 21.90625 -12.046875 C 22.101562 -11.847656 22.203125 -11.597656 22.203125 -11.296875 L 22.203125 -2.875 C 22.203125 -2.6875 22.15625 -2.507812 22.0625 -2.34375 C 21.96875 -2.175781 21.84375 -2.035156 21.6875 -1.921875 C 20.65625 -1.222656 19.503906 -0.671875 18.234375 -0.265625 C 16.960938 0.140625 15.640625 0.34375 14.265625 0.34375 Z M 14.265625 0.34375 "/></g></g></g><g fill="#000000" fill-opacity="1"><g transform="translate(296.80397, 509.05146)"><g><path d="M 16.125 -17.765625 C 16.425781 -17.765625 16.675781 -17.660156 16.875 -17.453125 C 17.070312 -17.242188 17.171875 -17 17.171875 -16.71875 L 17.171875 -6.859375 C 17.171875 -4.546875 16.515625 -2.78125 15.203125 -1.5625 C 13.898438 -0.351562 12.144531 0.25 9.9375 0.25 C 7.738281 0.25 5.992188 -0.351562 4.703125 -1.5625 C 3.410156 -2.78125 2.765625 -4.546875 2.765625 -6.859375 L 2.765625 -16.71875 C 2.765625 -17 2.863281 -17.242188 3.0625 -17.453125 C 3.257812 -17.660156 3.507812 -17.765625 3.8125 -17.765625 C 4.113281 -17.765625 4.363281 -17.660156 4.5625 -17.453125 C 4.757812 -17.242188 4.859375 -17 4.859375 -16.71875 L 4.859375 -6.859375 C 4.859375 -5.179688 5.304688 -3.90625 6.203125 -3.03125 C 7.097656 -2.15625 8.34375 -1.71875 9.9375 -1.71875 C 11.539062 -1.71875 12.796875 -2.15625 13.703125 -3.03125 C 14.617188 -3.90625 15.078125 -5.179688 15.078125 -6.859375 L 15.078125 -16.71875 C 15.078125 -17 15.164062 -17.242188 15.34375 -17.453125 C 15.53125 -17.660156 15.789062 -17.765625 16.125 -17.765625 Z M 16.125 -17.765625 "/></g></g></g><g fill="#000000" fill-opacity="1"><g transform="translate(330.678337, 509.05146)"><g><path d="M 4.796875 -1.046875 C 4.796875 -0.765625 4.6875 -0.519531 4.46875 -0.3125 C 4.257812 -0.101562 4.015625 0 3.734375 0 C 3.429688 0 3.179688 -0.101562 2.984375 -0.3125 C 2.785156 -0.519531 2.6875 -0.765625 2.6875 -1.046875 L 2.6875 -17.140625 C 2.6875 -17.410156 2.785156 -17.648438 2.984375 -17.859375 C 3.179688 -18.078125 3.429688 -18.1875 3.734375 -18.1875 C 4.046875 -18.1875 4.300781 -18.078125 4.5 -17.859375 C 4.695312 -17.648438 4.796875 -17.410156 4.796875 -17.140625 Z M 3.75 -20.53125 C 3.257812 -20.53125 2.890625 -20.640625 2.640625 -20.859375 C 2.398438 -21.078125 2.28125 -21.398438 2.28125 -21.828125 L 2.28125 -22.171875 C 2.28125 -22.585938 2.410156 -22.90625 2.671875 -23.125 C 2.941406 -23.351562 3.3125 -23.46875 3.78125 -23.46875 C 4.226562 -23.46875 4.570312 -23.351562 4.8125 -23.125 C 5.0625 -22.90625 5.1875 -22.585938 5.1875 -22.171875 L 5.1875 -21.828125 C 5.1875 -21.398438 5.0625 -21.078125 4.8125 -20.859375 C 4.570312 -20.640625 4.21875 -20.53125 3.75 -20.53125 Z M 3.75 -20.53125 "/></g></g></g><g fill="#000000" fill-opacity="1"><g transform="translate(352.144736, 509.05146)"><g><path d="M 17.421875 -25.875 C 17.722656 -25.875 17.972656 -25.773438 18.171875 -25.578125 C 18.367188 -25.378906 18.46875 -25.128906 18.46875 -24.828125 L 18.46875 -1.046875 C 18.46875 -0.765625 18.359375 -0.519531 18.140625 -0.3125 C 17.929688 -0.101562 17.691406 0 17.421875 0 C 17.109375 0 16.851562 -0.101562 16.65625 -0.3125 C 16.457031 -0.519531 16.359375 -0.765625 16.359375 -1.046875 L 16.359375 -5.203125 L 16.953125 -5.703125 C 16.953125 -5.046875 16.773438 -4.363281 16.421875 -3.65625 C 16.078125 -2.945312 15.582031 -2.285156 14.9375 -1.671875 C 14.300781 -1.066406 13.554688 -0.578125 12.703125 -0.203125 C 11.859375 0.160156 10.945312 0.34375 9.96875 0.34375 C 8.40625 0.34375 7 -0.0625 5.75 -0.875 C 4.5 -1.6875 3.515625 -2.789062 2.796875 -4.1875 C 2.078125 -5.59375 1.71875 -7.191406 1.71875 -8.984375 C 1.71875 -10.753906 2.078125 -12.34375 2.796875 -13.75 C 3.515625 -15.164062 4.492188 -16.273438 5.734375 -17.078125 C 6.972656 -17.878906 8.375 -18.28125 9.9375 -18.28125 C 10.882812 -18.28125 11.789062 -18.101562 12.65625 -17.75 C 13.519531 -17.40625 14.285156 -16.929688 14.953125 -16.328125 C 15.617188 -15.722656 16.140625 -15.03125 16.515625 -14.25 C 16.898438 -13.46875 17.09375 -12.65625 17.09375 -11.8125 L 16.359375 -12.34375 L 16.359375 -24.828125 C 16.359375 -25.109375 16.457031 -25.351562 16.65625 -25.5625 C 16.851562 -25.769531 17.109375 -25.875 17.421875 -25.875 Z M 10.140625 -1.609375 C 11.398438 -1.609375 12.5 -1.925781 13.4375 -2.5625 C 14.382812 -3.207031 15.128906 -4.082031 15.671875 -5.1875 C 16.222656 -6.300781 16.5 -7.566406 16.5 -8.984375 C 16.5 -10.378906 16.222656 -11.628906 15.671875 -12.734375 C 15.128906 -13.847656 14.378906 -14.722656 13.421875 -15.359375 C 12.472656 -16.003906 11.378906 -16.328125 10.140625 -16.328125 C 8.929688 -16.328125 7.84375 -16.003906 6.875 -15.359375 C 5.90625 -14.722656 5.144531 -13.847656 4.59375 -12.734375 C 4.050781 -11.628906 3.78125 -10.378906 3.78125 -8.984375 C 3.78125 -7.585938 4.050781 -6.328125 4.59375 -5.203125 C 5.144531 -4.085938 5.90625 -3.207031 6.875 -2.5625 C 7.84375 -1.925781 8.929688 -1.609375 10.140625 -1.609375 Z M 10.140625 -1.609375 "/></g></g></g><g fill="#000000" fill-opacity="1"><g transform="translate(387.312327, 509.05146)"><g><path d="M 17.421875 -17.875 C 17.722656 -17.875 17.972656 -17.765625 18.171875 -17.546875 C 18.367188 -17.335938 18.46875 -17.082031 18.46875 -16.78125 L 18.46875 -1.046875 C 18.46875 -0.765625 18.359375 -0.519531 18.140625 -0.3125 C 17.929688 -0.101562 17.691406 0 17.421875 0 C 17.109375 0 16.851562 -0.101562 16.65625 -0.3125 C 16.457031 -0.519531 16.359375 -0.765625 16.359375 -1.046875 L 16.359375 -5.203125 L 16.953125 -5.484375 C 16.953125 -4.835938 16.769531 -4.175781 16.40625 -3.5 C 16.050781 -2.820312 15.554688 -2.191406 14.921875 -1.609375 C 14.296875 -1.023438 13.554688 -0.550781 12.703125 -0.1875 C 11.859375 0.164062 10.945312 0.34375 9.96875 0.34375 C 8.382812 0.34375 6.96875 -0.0625 5.71875 -0.875 C 4.46875 -1.6875 3.488281 -2.800781 2.78125 -4.21875 C 2.070312 -5.644531 1.71875 -7.242188 1.71875 -9.015625 C 1.71875 -10.835938 2.078125 -12.441406 2.796875 -13.828125 C 3.515625 -15.210938 4.492188 -16.300781 5.734375 -17.09375 C 6.972656 -17.882812 8.375 -18.28125 9.9375 -18.28125 C 10.9375 -18.28125 11.875 -18.101562 12.75 -17.75 C 13.625 -17.40625 14.382812 -16.929688 15.03125 -16.328125 C 15.6875 -15.722656 16.191406 -15.03125 16.546875 -14.25 C 16.910156 -13.46875 17.09375 -12.65625 17.09375 -11.8125 L 16.359375 -12.34375 L 16.359375 -16.78125 C 16.359375 -17.082031 16.457031 -17.335938 16.65625 -17.546875 C 16.851562 -17.765625 17.109375 -17.875 17.421875 -17.875 Z M 10.140625 -1.609375 C 11.378906 -1.609375 12.472656 -1.925781 13.421875 -2.5625 C 14.378906 -3.207031 15.128906 -4.09375 15.671875 -5.21875 C 16.222656 -6.351562 16.5 -7.617188 16.5 -9.015625 C 16.5 -10.390625 16.222656 -11.625 15.671875 -12.71875 C 15.128906 -13.820312 14.378906 -14.695312 13.421875 -15.34375 C 12.472656 -16 11.378906 -16.328125 10.140625 -16.328125 C 8.929688 -16.328125 7.84375 -16.007812 6.875 -15.375 C 5.90625 -14.75 5.144531 -13.890625 4.59375 -12.796875 C 4.050781 -11.703125 3.78125 -10.441406 3.78125 -9.015625 C 3.78125 -7.617188 4.050781 -6.351562 4.59375 -5.21875 C 5.144531 -4.09375 5.894531 -3.207031 6.84375 -2.5625 C 7.800781 -1.925781 8.898438 -1.609375 10.140625 -1.609375 Z M 10.140625 -1.609375 "/></g></g></g><g fill="#000000" fill-opacity="1"><g transform="translate(151.09412, 557.220435)"><g><path d="M 17.421875 -25.875 C 17.722656 -25.875 17.972656 -25.773438 18.171875 -25.578125 C 18.367188 -25.378906 18.46875 -25.128906 18.46875 -24.828125 L 18.46875 -1.046875 C 18.46875 -0.765625 18.359375 -0.519531 18.140625 -0.3125 C 17.929688 -0.101562 17.691406 0 17.421875 0 C 17.109375 0 16.851562 -0.101562 16.65625 -0.3125 C 16.457031 -0.519531 16.359375 -0.765625 16.359375 -1.046875 L 16.359375 -5.203125 L 16.953125 -5.703125 C 16.953125 -5.046875 16.773438 -4.363281 16.421875 -3.65625 C 16.078125 -2.945312 15.582031 -2.285156 14.9375 -1.671875 C 14.300781 -1.066406 13.554688 -0.578125 12.703125 -0.203125 C 11.859375 0.160156 10.945312 0.34375 9.96875 0.34375 C 8.40625 0.34375 7 -0.0625 5.75 -0.875 C 4.5 -1.6875 3.515625 -2.789062 2.796875 -4.1875 C 2.078125 -5.59375 1.71875 -7.191406 1.71875 -8.984375 C 1.71875 -10.753906 2.078125 -12.34375 2.796875 -13.75 C 3.515625 -15.164062 4.492188 -16.273438 5.734375 -17.078125 C 6.972656 -17.878906 8.375 -18.28125 9.9375 -18.28125 C 10.882812 -18.28125 11.789062 -18.101562 12.65625 -17.75 C 13.519531 -17.40625 14.285156 -16.929688 14.953125 -16.328125 C 15.617188 -15.722656 16.140625 -15.03125 16.515625 -14.25 C 16.898438 -13.46875 17.09375 -12.65625 17.09375 -11.8125 L 16.359375 -12.34375 L 16.359375 -24.828125 C 16.359375 -25.109375 16.457031 -25.351562 16.65625 -25.5625 C 16.851562 -25.769531 17.109375 -25.875 17.421875 -25.875 Z M 10.140625 -1.609375 C 11.398438 -1.609375 12.5 -1.925781 13.4375 -2.5625 C 14.382812 -3.207031 15.128906 -4.082031 15.671875 -5.1875 C 16.222656 -6.300781 16.5 -7.566406 16.5 -8.984375 C 16.5 -10.378906 16.222656 -11.628906 15.671875 -12.734375 C 15.128906 -13.847656 14.378906 -14.722656 13.421875 -15.359375 C 12.472656 -16.003906 11.378906 -16.328125 10.140625 -16.328125 C 8.929688 -16.328125 7.84375 -16.003906 6.875 -15.359375 C 5.90625 -14.722656 5.144531 -13.847656 4.59375 -12.734375 C 4.050781 -11.628906 3.78125 -10.378906 3.78125 -8.984375 C 3.78125 -7.585938 4.050781 -6.328125 4.59375 -5.203125 C 5.144531 -4.085938 5.90625 -3.207031 6.875 -2.5625 C 7.84375 -1.925781 8.929688 -1.609375 10.140625 -1.609375 Z M 10.140625 -1.609375 "/></g></g></g><g fill="#000000" fill-opacity="1"><g transform="translate(186.261707, 557.220435)"><g><path d="M 10.84375 0.34375 C 9.039062 0.34375 7.453125 -0.0351562 6.078125 -0.796875 C 4.703125 -1.566406 3.628906 -2.640625 2.859375 -4.015625 C 2.097656 -5.390625 1.71875 -7 1.71875 -8.84375 C 1.71875 -10.820312 2.109375 -12.507812 2.890625 -13.90625 C 3.671875 -15.3125 4.679688 -16.390625 5.921875 -17.140625 C 7.171875 -17.898438 8.492188 -18.28125 9.890625 -18.28125 C 10.921875 -18.28125 11.921875 -18.097656 12.890625 -17.734375 C 13.859375 -17.378906 14.71875 -16.847656 15.46875 -16.140625 C 16.226562 -15.429688 16.832031 -14.5625 17.28125 -13.53125 C 17.738281 -12.507812 17.992188 -11.320312 18.046875 -9.96875 C 18.023438 -9.6875 17.90625 -9.445312 17.6875 -9.25 C 17.476562 -9.050781 17.234375 -8.953125 16.953125 -8.953125 L 2.9375 -8.953125 L 2.515625 -10.84375 L 16.296875 -10.84375 L 15.84375 -10.421875 L 15.84375 -11.125 C 15.75 -12.21875 15.394531 -13.148438 14.78125 -13.921875 C 14.175781 -14.691406 13.441406 -15.273438 12.578125 -15.671875 C 11.722656 -16.066406 10.828125 -16.265625 9.890625 -16.265625 C 9.191406 -16.265625 8.472656 -16.125 7.734375 -15.84375 C 7.003906 -15.5625 6.34375 -15.125 5.75 -14.53125 C 5.15625 -13.9375 4.671875 -13.175781 4.296875 -12.25 C 3.921875 -11.332031 3.734375 -10.242188 3.734375 -8.984375 C 3.734375 -7.609375 4.015625 -6.359375 4.578125 -5.234375 C 5.140625 -4.117188 5.953125 -3.234375 7.015625 -2.578125 C 8.078125 -1.929688 9.34375 -1.609375 10.8125 -1.609375 C 11.625 -1.609375 12.351562 -1.722656 13 -1.953125 C 13.65625 -2.191406 14.226562 -2.503906 14.71875 -2.890625 C 15.207031 -3.273438 15.617188 -3.675781 15.953125 -4.09375 C 16.203125 -4.300781 16.457031 -4.40625 16.71875 -4.40625 C 16.945312 -4.40625 17.148438 -4.3125 17.328125 -4.125 C 17.503906 -3.9375 17.59375 -3.726562 17.59375 -3.5 C 17.59375 -3.21875 17.472656 -2.972656 17.234375 -2.765625 C 16.535156 -1.921875 15.625 -1.191406 14.5 -0.578125 C 13.382812 0.0351562 12.164062 0.34375 10.84375 0.34375 Z M 10.84375 0.34375 "/></g></g></g><g fill="#000000" fill-opacity="1"><g transform="translate(219.996258, 557.220435)"><g><path d="M 9.234375 -25.734375 C 9.578125 -25.734375 9.953125 -25.695312 10.359375 -25.625 C 10.773438 -25.5625 11.132812 -25.441406 11.4375 -25.265625 C 11.738281 -25.085938 11.890625 -24.828125 11.890625 -24.484375 C 11.890625 -24.222656 11.796875 -23.992188 11.609375 -23.796875 C 11.421875 -23.597656 11.210938 -23.5 10.984375 -23.5 C 10.742188 -23.5 10.445312 -23.5625 10.09375 -23.6875 C 9.75 -23.820312 9.378906 -23.890625 8.984375 -23.890625 C 8.492188 -23.890625 8.070312 -23.773438 7.71875 -23.546875 C 7.375 -23.328125 7.109375 -23.015625 6.921875 -22.609375 C 6.734375 -22.203125 6.640625 -21.707031 6.640625 -21.125 L 6.640625 -1.046875 C 6.640625 -0.765625 6.539062 -0.519531 6.34375 -0.3125 C 6.144531 -0.101562 5.894531 0 5.59375 0 C 5.289062 0 5.039062 -0.101562 4.84375 -0.3125 C 4.644531 -0.519531 4.546875 -0.765625 4.546875 -1.046875 L 4.546875 -21.125 C 4.546875 -22.613281 4.984375 -23.753906 5.859375 -24.546875 C 6.734375 -25.335938 7.859375 -25.734375 9.234375 -25.734375 Z M 10.5625 -17.515625 C 10.84375 -17.515625 11.078125 -17.421875 11.265625 -17.234375 C 11.453125 -17.046875 11.546875 -16.816406 11.546875 -16.546875 C 11.546875 -16.265625 11.453125 -16.03125 11.265625 -15.84375 C 11.078125 -15.65625 10.84375 -15.5625 10.5625 -15.5625 L 2 -15.5625 C 1.738281 -15.5625 1.507812 -15.660156 1.3125 -15.859375 C 1.113281 -16.054688 1.015625 -16.285156 1.015625 -16.546875 C 1.015625 -16.847656 1.113281 -17.082031 1.3125 -17.25 C 1.507812 -17.425781 1.738281 -17.515625 2 -17.515625 Z M 10.5625 -17.515625 "/></g></g></g><g fill="#000000" fill-opacity="1"><g transform="translate(246.565647, 557.220435)"><g><path d="M 4.796875 -1.046875 C 4.796875 -0.765625 4.6875 -0.519531 4.46875 -0.3125 C 4.257812 -0.101562 4.015625 0 3.734375 0 C 3.429688 0 3.179688 -0.101562 2.984375 -0.3125 C 2.785156 -0.519531 2.6875 -0.765625 2.6875 -1.046875 L 2.6875 -17.140625 C 2.6875 -17.410156 2.785156 -17.648438 2.984375 -17.859375 C 3.179688 -18.078125 3.429688 -18.1875 3.734375 -18.1875 C 4.046875 -18.1875 4.300781 -18.078125 4.5 -17.859375 C 4.695312 -17.648438 4.796875 -17.410156 4.796875 -17.140625 Z M 3.75 -20.53125 C 3.257812 -20.53125 2.890625 -20.640625 2.640625 -20.859375 C 2.398438 -21.078125 2.28125 -21.398438 2.28125 -21.828125 L 2.28125 -22.171875 C 2.28125 -22.585938 2.410156 -22.90625 2.671875 -23.125 C 2.941406 -23.351562 3.3125 -23.46875 3.78125 -23.46875 C 4.226562 -23.46875 4.570312 -23.351562 4.8125 -23.125 C 5.0625 -22.90625 5.1875 -22.585938 5.1875 -22.171875 L 5.1875 -21.828125 C 5.1875 -21.398438 5.0625 -21.078125 4.8125 -20.859375 C 4.570312 -20.640625 4.21875 -20.53125 3.75 -20.53125 Z M 3.75 -20.53125 "/></g></g></g><g fill="#000000" fill-opacity="1"><g transform="translate(268.032045, 557.220435)"><g><path d="M 11.1875 -18.28125 C 12.726562 -18.28125 13.957031 -17.972656 14.875 -17.359375 C 15.800781 -16.742188 16.46875 -15.90625 16.875 -14.84375 C 17.28125 -13.78125 17.484375 -12.609375 17.484375 -11.328125 L 17.484375 -1.046875 C 17.484375 -0.765625 17.378906 -0.519531 17.171875 -0.3125 C 16.960938 -0.101562 16.71875 0 16.4375 0 C 16.113281 0 15.859375 -0.101562 15.671875 -0.3125 C 15.484375 -0.519531 15.390625 -0.765625 15.390625 -1.046875 L 15.390625 -11.21875 C 15.390625 -12.15625 15.238281 -13.007812 14.9375 -13.78125 C 14.632812 -14.550781 14.132812 -15.164062 13.4375 -15.625 C 12.75 -16.09375 11.847656 -16.328125 10.734375 -16.328125 C 9.734375 -16.328125 8.785156 -16.09375 7.890625 -15.625 C 6.992188 -15.164062 6.265625 -14.550781 5.703125 -13.78125 C 5.140625 -13.007812 4.859375 -12.15625 4.859375 -11.21875 L 4.859375 -1.046875 C 4.859375 -0.765625 4.753906 -0.519531 4.546875 -0.3125 C 4.335938 -0.101562 4.09375 0 3.8125 0 C 3.488281 0 3.234375 -0.101562 3.046875 -0.3125 C 2.859375 -0.519531 2.765625 -0.765625 2.765625 -1.046875 L 2.765625 -16.71875 C 2.765625 -17 2.863281 -17.242188 3.0625 -17.453125 C 3.257812 -17.660156 3.507812 -17.765625 3.8125 -17.765625 C 4.113281 -17.765625 4.363281 -17.660156 4.5625 -17.453125 C 4.757812 -17.242188 4.859375 -17 4.859375 -16.71875 L 4.859375 -13.78125 L 4.0625 -12.515625 C 4.101562 -13.265625 4.335938 -13.984375 4.765625 -14.671875 C 5.203125 -15.359375 5.757812 -15.972656 6.4375 -16.515625 C 7.113281 -17.066406 7.863281 -17.5 8.6875 -17.8125 C 9.519531 -18.125 10.351562 -18.28125 11.1875 -18.28125 Z M 11.1875 -18.28125 "/></g></g></g><g fill="#000000" fill-opacity="1"><g transform="translate(302.220975, 557.220435)"><g><path d="M 4.796875 -1.046875 C 4.796875 -0.765625 4.6875 -0.519531 4.46875 -0.3125 C 4.257812 -0.101562 4.015625 0 3.734375 0 C 3.429688 0 3.179688 -0.101562 2.984375 -0.3125 C 2.785156 -0.519531 2.6875 -0.765625 2.6875 -1.046875 L 2.6875 -17.140625 C 2.6875 -17.410156 2.785156 -17.648438 2.984375 -17.859375 C 3.179688 -18.078125 3.429688 -18.1875 3.734375 -18.1875 C 4.046875 -18.1875 4.300781 -18.078125 4.5 -17.859375 C 4.695312 -17.648438 4.796875 -17.410156 4.796875 -17.140625 Z M 3.75 -20.53125 C 3.257812 -20.53125 2.890625 -20.640625 2.640625 -20.859375 C 2.398438 -21.078125 2.28125 -21.398438 2.28125 -21.828125 L 2.28125 -22.171875 C 2.28125 -22.585938 2.410156 -22.90625 2.671875 -23.125 C 2.941406 -23.351562 3.3125 -23.46875 3.78125 -23.46875 C 4.226562 -23.46875 4.570312 -23.351562 4.8125 -23.125 C 5.0625 -22.90625 5.1875 -22.585938 5.1875 -22.171875 L 5.1875 -21.828125 C 5.1875 -21.398438 5.0625 -21.078125 4.8125 -20.859375 C 4.570312 -20.640625 4.21875 -20.53125 3.75 -20.53125 Z M 3.75 -20.53125 "/></g></g></g><g fill="#000000" fill-opacity="1"><g transform="translate(323.687374, 557.220435)"><g><path d="M 1.609375 -17.796875 L 9.75 -17.796875 C 10.03125 -17.796875 10.265625 -17.695312 10.453125 -17.5 C 10.640625 -17.300781 10.734375 -17.0625 10.734375 -16.78125 C 10.734375 -16.53125 10.640625 -16.3125 10.453125 -16.125 C 10.265625 -15.9375 10.03125 -15.84375 9.75 -15.84375 L 1.609375 -15.84375 C 1.328125 -15.84375 1.085938 -15.941406 0.890625 -16.140625 C 0.691406 -16.335938 0.59375 -16.5625 0.59375 -16.8125 C 0.59375 -17.09375 0.691406 -17.328125 0.890625 -17.515625 C 1.085938 -17.703125 1.328125 -17.796875 1.609375 -17.796875 Z M 5.203125 -22.734375 C 5.515625 -22.734375 5.769531 -22.625 5.96875 -22.40625 C 6.164062 -22.195312 6.265625 -21.957031 6.265625 -21.6875 L 6.265625 -4.125 C 6.265625 -3.46875 6.347656 -2.976562 6.515625 -2.65625 C 6.691406 -2.332031 6.921875 -2.117188 7.203125 -2.015625 C 7.484375 -1.910156 7.765625 -1.859375 8.046875 -1.859375 C 8.234375 -1.859375 8.398438 -1.882812 8.546875 -1.9375 C 8.703125 -2 8.875 -2.03125 9.0625 -2.03125 C 9.269531 -2.03125 9.445312 -1.945312 9.59375 -1.78125 C 9.75 -1.613281 9.828125 -1.40625 9.828125 -1.15625 C 9.828125 -0.832031 9.640625 -0.554688 9.265625 -0.328125 C 8.890625 -0.109375 8.445312 0 7.9375 0 C 7.726562 0 7.410156 -0.015625 6.984375 -0.046875 C 6.566406 -0.0859375 6.132812 -0.21875 5.6875 -0.4375 C 5.25 -0.65625 4.882812 -1.046875 4.59375 -1.609375 C 4.300781 -2.171875 4.15625 -2.972656 4.15625 -4.015625 L 4.15625 -21.6875 C 4.15625 -21.957031 4.253906 -22.195312 4.453125 -22.40625 C 4.648438 -22.625 4.898438 -22.734375 5.203125 -22.734375 Z M 5.203125 -22.734375 "/></g></g></g><g fill="#000000" fill-opacity="1"><g transform="translate(349.522775, 557.220435)"><g><path d="M 4.796875 -1.046875 C 4.796875 -0.765625 4.6875 -0.519531 4.46875 -0.3125 C 4.257812 -0.101562 4.015625 0 3.734375 0 C 3.429688 0 3.179688 -0.101562 2.984375 -0.3125 C 2.785156 -0.519531 2.6875 -0.765625 2.6875 -1.046875 L 2.6875 -17.140625 C 2.6875 -17.410156 2.785156 -17.648438 2.984375 -17.859375 C 3.179688 -18.078125 3.429688 -18.1875 3.734375 -18.1875 C 4.046875 -18.1875 4.300781 -18.078125 4.5 -17.859375 C 4.695312 -17.648438 4.796875 -17.410156 4.796875 -17.140625 Z M 3.75 -20.53125 C 3.257812 -20.53125 2.890625 -20.640625 2.640625 -20.859375 C 2.398438 -21.078125 2.28125 -21.398438 2.28125 -21.828125 L 2.28125 -22.171875 C 2.28125 -22.585938 2.410156 -22.90625 2.671875 -23.125 C 2.941406 -23.351562 3.3125 -23.46875 3.78125 -23.46875 C 4.226562 -23.46875 4.570312 -23.351562 4.8125 -23.125 C 5.0625 -22.90625 5.1875 -22.585938 5.1875 -22.171875 L 5.1875 -21.828125 C 5.1875 -21.398438 5.0625 -21.078125 4.8125 -20.859375 C 4.570312 -20.640625 4.21875 -20.53125 3.75 -20.53125 Z M 3.75 -20.53125 "/></g></g></g><g fill="#000000" fill-opacity="1"><g transform="translate(370.989174, 557.220435)"><g><path d="M 2.34375 -18.25 C 2.53125 -18.25 2.71875 -18.191406 2.90625 -18.078125 C 3.09375 -17.960938 3.234375 -17.785156 3.328125 -17.546875 L 9.4375 -3 L 8.984375 -2.734375 L 15.25 -17.546875 C 15.4375 -18.015625 15.773438 -18.238281 16.265625 -18.21875 C 16.492188 -18.21875 16.710938 -18.140625 16.921875 -17.984375 C 17.128906 -17.835938 17.234375 -17.625 17.234375 -17.34375 C 17.234375 -17.207031 17.21875 -17.097656 17.1875 -17.015625 C 17.15625 -16.929688 17.125 -16.84375 17.09375 -16.75 L 10.25 -0.671875 C 10.0625 -0.242188 9.742188 -0.0195312 9.296875 0 C 9.085938 0.0195312 8.882812 -0.03125 8.6875 -0.15625 C 8.488281 -0.28125 8.34375 -0.453125 8.25 -0.671875 L 1.359375 -16.75 C 1.335938 -16.789062 1.316406 -16.859375 1.296875 -16.953125 C 1.273438 -17.046875 1.265625 -17.140625 1.265625 -17.234375 C 1.265625 -17.492188 1.351562 -17.726562 1.53125 -17.9375 C 1.71875 -18.144531 1.988281 -18.25 2.34375 -18.25 Z M 2.34375 -18.25 "/></g></g></g><g fill="#000000" fill-opacity="1"><g transform="translate(403.465464, 557.220435)"><g><path d="M 17.421875 -17.875 C 17.722656 -17.875 17.972656 -17.765625 18.171875 -17.546875 C 18.367188 -17.335938 18.46875 -17.082031 18.46875 -16.78125 L 18.46875 -1.046875 C 18.46875 -0.765625 18.359375 -0.519531 18.140625 -0.3125 C 17.929688 -0.101562 17.691406 0 17.421875 0 C 17.109375 0 16.851562 -0.101562 16.65625 -0.3125 C 16.457031 -0.519531 16.359375 -0.765625 16.359375 -1.046875 L 16.359375 -5.203125 L 16.953125 -5.484375 C 16.953125 -4.835938 16.769531 -4.175781 16.40625 -3.5 C 16.050781 -2.820312 15.554688 -2.191406 14.921875 -1.609375 C 14.296875 -1.023438 13.554688 -0.550781 12.703125 -0.1875 C 11.859375 0.164062 10.945312 0.34375 9.96875 0.34375 C 8.382812 0.34375 6.96875 -0.0625 5.71875 -0.875 C 4.46875 -1.6875 3.488281 -2.800781 2.78125 -4.21875 C 2.070312 -5.644531 1.71875 -7.242188 1.71875 -9.015625 C 1.71875 -10.835938 2.078125 -12.441406 2.796875 -13.828125 C 3.515625 -15.210938 4.492188 -16.300781 5.734375 -17.09375 C 6.972656 -17.882812 8.375 -18.28125 9.9375 -18.28125 C 10.9375 -18.28125 11.875 -18.101562 12.75 -17.75 C 13.625 -17.40625 14.382812 -16.929688 15.03125 -16.328125 C 15.6875 -15.722656 16.191406 -15.03125 16.546875 -14.25 C 16.910156 -13.46875 17.09375 -12.65625 17.09375 -11.8125 L 16.359375 -12.34375 L 16.359375 -16.78125 C 16.359375 -17.082031 16.457031 -17.335938 16.65625 -17.546875 C 16.851562 -17.765625 17.109375 -17.875 17.421875 -17.875 Z M 10.140625 -1.609375 C 11.378906 -1.609375 12.472656 -1.925781 13.421875 -2.5625 C 14.378906 -3.207031 15.128906 -4.09375 15.671875 -5.21875 C 16.222656 -6.351562 16.5 -7.617188 16.5 -9.015625 C 16.5 -10.390625 16.222656 -11.625 15.671875 -12.71875 C 15.128906 -13.820312 14.378906 -14.695312 13.421875 -15.34375 C 12.472656 -16 11.378906 -16.328125 10.140625 -16.328125 C 8.929688 -16.328125 7.84375 -16.007812 6.875 -15.375 C 5.90625 -14.75 5.144531 -13.890625 4.59375 -12.796875 C 4.050781 -11.703125 3.78125 -10.441406 3.78125 -9.015625 C 3.78125 -7.617188 4.050781 -6.351562 4.59375 -5.21875 C 5.144531 -4.09375 5.894531 -3.207031 6.84375 -2.5625 C 7.800781 -1.925781 8.898438 -1.609375 10.140625 -1.609375 Z M 10.140625 -1.609375 "/></g></g></g><g fill="#000000" fill-opacity="1"><g transform="translate(106.050003, 459.295128)"><g><path d="M 23.09375 -2.828125 C 23.46875 -2.828125 23.800781 -2.691406 24.09375 -2.421875 C 24.382812 -2.148438 24.53125 -1.820312 24.53125 -1.4375 C 24.53125 -1.019531 24.382812 -0.675781 24.09375 -0.40625 C 23.800781 -0.132812 23.46875 0 23.09375 0 L 5.953125 0 C 5.535156 0 5.191406 -0.140625 4.921875 -0.421875 C 4.648438 -0.710938 4.515625 -1.050781 4.515625 -1.4375 L 4.515625 -32.15625 C 4.515625 -32.539062 4.65625 -32.875 4.9375 -33.15625 C 5.226562 -33.445312 5.597656 -33.59375 6.046875 -33.59375 C 6.429688 -33.59375 6.773438 -33.445312 7.078125 -33.15625 C 7.378906 -32.875 7.53125 -32.539062 7.53125 -32.15625 L 7.53125 -2.015625 L 6.625 -2.828125 Z M 23.09375 -2.828125 "/></g></g></g><g fill="#000000" fill-opacity="1"><g transform="translate(150.785982, 459.295128)"><g><path d="M 7.15625 -30.484375 C 7.15625 -29.617188 6.894531 -28.773438 6.375 -27.953125 C 5.863281 -27.140625 5.25 -26.46875 4.53125 -25.9375 C 3.8125 -25.414062 3.085938 -25.15625 2.359375 -25.15625 C 2.097656 -25.15625 1.851562 -25.234375 1.625 -25.390625 C 1.40625 -25.546875 1.296875 -25.832031 1.296875 -26.25 C 1.296875 -26.695312 1.4375 -26.953125 1.71875 -27.015625 C 2.007812 -27.085938 2.394531 -27.234375 2.875 -27.453125 C 3.382812 -27.742188 3.785156 -28.082031 4.078125 -28.46875 C 4.367188 -28.851562 4.515625 -29.300781 4.515625 -29.8125 C 4.515625 -30.226562 4.394531 -30.546875 4.15625 -30.765625 C 3.914062 -30.992188 3.632812 -31.109375 3.3125 -31.109375 C 3.082031 -31.109375 2.851562 -31.066406 2.625 -30.984375 C 2.40625 -30.898438 2.21875 -30.796875 2.0625 -30.671875 C 1.875 -30.828125 1.722656 -31.007812 1.609375 -31.21875 C 1.492188 -31.425781 1.4375 -31.675781 1.4375 -31.96875 C 1.5 -32.507812 1.800781 -32.972656 2.34375 -33.359375 C 2.894531 -33.742188 3.503906 -33.9375 4.171875 -33.9375 C 5.035156 -33.9375 5.75 -33.59375 6.3125 -32.90625 C 6.875 -32.21875 7.15625 -31.410156 7.15625 -30.484375 Z M 7.15625 -30.484375 "/></g></g></g><g fill="#000000" fill-opacity="1"><g transform="translate(179.297975, 459.295128)"><g><path d="M 34.46875 -16.796875 C 34.46875 -14.273438 34.070312 -11.960938 33.28125 -9.859375 C 32.5 -7.765625 31.390625 -5.941406 29.953125 -4.390625 C 28.515625 -2.835938 26.8125 -1.632812 24.84375 -0.78125 C 22.875 0.0625 20.722656 0.484375 18.390625 0.484375 C 16.046875 0.484375 13.890625 0.0625 11.921875 -0.78125 C 9.953125 -1.632812 8.25 -2.835938 6.8125 -4.390625 C 5.375 -5.941406 4.257812 -7.765625 3.46875 -9.859375 C 2.6875 -11.960938 2.296875 -14.273438 2.296875 -16.796875 C 2.296875 -19.328125 2.6875 -21.640625 3.46875 -23.734375 C 4.257812 -25.828125 5.375 -27.648438 6.8125 -29.203125 C 8.25 -30.753906 9.953125 -31.953125 11.921875 -32.796875 C 13.890625 -33.648438 16.046875 -34.078125 18.390625 -34.078125 C 20.722656 -34.078125 22.875 -33.648438 24.84375 -32.796875 C 26.8125 -31.953125 28.515625 -30.753906 29.953125 -29.203125 C 31.390625 -27.648438 32.5 -25.828125 33.28125 -23.734375 C 34.070312 -21.640625 34.46875 -19.328125 34.46875 -16.796875 Z M 31.390625 -16.796875 C 31.390625 -19.648438 30.835938 -22.15625 29.734375 -24.3125 C 28.628906 -26.46875 27.097656 -28.15625 25.140625 -29.375 C 23.191406 -30.59375 20.941406 -31.203125 18.390625 -31.203125 C 15.859375 -31.203125 13.609375 -30.59375 11.640625 -29.375 C 9.671875 -28.15625 8.132812 -26.46875 7.03125 -24.3125 C 5.925781 -22.15625 5.375 -19.648438 5.375 -16.796875 C 5.375 -13.953125 5.925781 -11.445312 7.03125 -9.28125 C 8.132812 -7.125 9.671875 -5.4375 11.640625 -4.21875 C 13.609375 -3.007812 15.859375 -2.40625 18.390625 -2.40625 C 20.941406 -2.40625 23.191406 -3.007812 25.140625 -4.21875 C 27.097656 -5.4375 28.628906 -7.125 29.734375 -9.28125 C 30.835938 -11.445312 31.390625 -13.953125 31.390625 -16.796875 Z M 31.390625 -16.796875 "/></g></g></g><g fill="#000000" fill-opacity="1"><g transform="translate(235.265935, 459.295128)"><g><path d="M 6.140625 0 C 5.660156 0 5.269531 -0.140625 4.96875 -0.421875 C 4.664062 -0.710938 4.515625 -1.050781 4.515625 -1.4375 L 4.515625 -32.15625 C 4.515625 -32.539062 4.65625 -32.875 4.9375 -33.15625 C 5.226562 -33.445312 5.566406 -33.59375 5.953125 -33.59375 L 18.90625 -33.59375 C 20.726562 -33.59375 22.359375 -33.203125 23.796875 -32.421875 C 25.242188 -31.640625 26.375 -30.5625 27.1875 -29.1875 C 28.007812 -27.8125 28.421875 -26.257812 28.421875 -24.53125 C 28.421875 -23.125 28.160156 -21.828125 27.640625 -20.640625 C 27.128906 -19.453125 26.410156 -18.453125 25.484375 -17.640625 C 24.554688 -16.828125 23.519531 -16.226562 22.375 -15.84375 L 20.6875 -16.375 C 21.875 -16.269531 22.976562 -15.890625 24 -15.234375 C 25.019531 -14.578125 25.84375 -13.679688 26.46875 -12.546875 C 27.09375 -11.410156 27.421875 -10.046875 27.453125 -8.453125 C 27.484375 -7.078125 27.554688 -6.003906 27.671875 -5.234375 C 27.785156 -4.460938 27.953125 -3.882812 28.171875 -3.5 C 28.398438 -3.113281 28.691406 -2.8125 29.046875 -2.59375 C 29.359375 -2.394531 29.570312 -2.117188 29.6875 -1.765625 C 29.800781 -1.421875 29.757812 -1.085938 29.5625 -0.765625 C 29.4375 -0.515625 29.253906 -0.332031 29.015625 -0.21875 C 28.773438 -0.101562 28.523438 -0.046875 28.265625 -0.046875 C 28.015625 -0.046875 27.757812 -0.109375 27.5 -0.234375 C 27.050781 -0.492188 26.59375 -0.894531 26.125 -1.4375 C 25.664062 -1.976562 25.285156 -2.773438 24.984375 -3.828125 C 24.679688 -4.890625 24.53125 -6.363281 24.53125 -8.25 C 24.53125 -9.5 24.328125 -10.523438 23.921875 -11.328125 C 23.523438 -12.128906 23.015625 -12.742188 22.390625 -13.171875 C 21.765625 -13.609375 21.078125 -13.914062 20.328125 -14.09375 C 19.578125 -14.269531 18.863281 -14.359375 18.1875 -14.359375 L 7.015625 -14.359375 L 7.53125 -15.03125 L 7.53125 -1.4375 C 7.53125 -1.050781 7.398438 -0.710938 7.140625 -0.421875 C 6.890625 -0.140625 6.554688 0 6.140625 0 Z M 7.015625 -16.984375 L 19.0625 -16.984375 C 20.144531 -17.085938 21.164062 -17.453125 22.125 -18.078125 C 23.082031 -18.703125 23.859375 -19.554688 24.453125 -20.640625 C 25.046875 -21.722656 25.34375 -22.988281 25.34375 -24.4375 C 25.34375 -26.257812 24.722656 -27.769531 23.484375 -28.96875 C 22.253906 -30.164062 20.648438 -30.765625 18.671875 -30.765625 L 7.203125 -30.765625 L 7.53125 -31.4375 L 7.53125 -16.3125 Z M 7.015625 -16.984375 "/></g></g></g><g fill="#000000" fill-opacity="1"><g transform="translate(286.6259, 459.295128)"><g><path d="M 7.53125 -1.484375 C 7.5 -1.066406 7.332031 -0.710938 7.03125 -0.421875 C 6.726562 -0.140625 6.382812 0 6 0 C 5.550781 0 5.191406 -0.140625 4.921875 -0.421875 C 4.648438 -0.710938 4.515625 -1.066406 4.515625 -1.484375 L 4.515625 -32.109375 C 4.515625 -32.523438 4.65625 -32.875 4.9375 -33.15625 C 5.226562 -33.445312 5.597656 -33.59375 6.046875 -33.59375 C 6.429688 -33.59375 6.773438 -33.445312 7.078125 -33.15625 C 7.378906 -32.875 7.53125 -32.523438 7.53125 -32.109375 Z M 7.53125 -1.484375 "/></g></g></g><g fill="#000000" fill-opacity="1"><g transform="translate(317.825881, 459.295128)"><g><path d="M 19.578125 0.484375 C 17.117188 0.484375 14.832031 0.0507812 12.71875 -0.8125 C 10.601562 -1.675781 8.769531 -2.882812 7.21875 -4.4375 C 5.664062 -5.988281 4.457031 -7.820312 3.59375 -9.9375 C 2.726562 -12.050781 2.296875 -14.335938 2.296875 -16.796875 C 2.296875 -19.265625 2.726562 -21.550781 3.59375 -23.65625 C 4.457031 -25.769531 5.664062 -27.601562 7.21875 -29.15625 C 8.769531 -30.707031 10.601562 -31.914062 12.71875 -32.78125 C 14.832031 -33.644531 17.117188 -34.078125 19.578125 -34.078125 C 21.273438 -34.078125 22.914062 -33.875 24.5 -33.46875 C 26.082031 -33.070312 27.5 -32.476562 28.75 -31.6875 C 28.976562 -31.519531 29.144531 -31.332031 29.25 -31.125 C 29.363281 -30.914062 29.421875 -30.703125 29.421875 -30.484375 C 29.421875 -30.035156 29.273438 -29.671875 28.984375 -29.390625 C 28.703125 -29.117188 28.398438 -28.984375 28.078125 -28.984375 C 27.921875 -28.984375 27.769531 -29.007812 27.625 -29.0625 C 27.476562 -29.113281 27.34375 -29.171875 27.21875 -29.234375 C 26.125 -29.835938 24.9375 -30.316406 23.65625 -30.671875 C 22.382812 -31.023438 21.023438 -31.203125 19.578125 -31.203125 C 16.828125 -31.203125 14.378906 -30.578125 12.234375 -29.328125 C 10.097656 -28.078125 8.421875 -26.363281 7.203125 -24.1875 C 5.984375 -22.007812 5.375 -19.546875 5.375 -16.796875 C 5.375 -14.046875 5.984375 -11.582031 7.203125 -9.40625 C 8.421875 -7.226562 10.097656 -5.515625 12.234375 -4.265625 C 14.378906 -3.023438 16.828125 -2.40625 19.578125 -2.40625 C 21.023438 -2.40625 22.472656 -2.609375 23.921875 -3.015625 C 25.378906 -3.429688 26.640625 -3.992188 27.703125 -4.703125 L 27.453125 -3.703125 L 27.453125 -14.734375 L 28.171875 -14.0625 L 19.875 -14.0625 C 19.457031 -14.0625 19.101562 -14.203125 18.8125 -14.484375 C 18.53125 -14.773438 18.390625 -15.113281 18.390625 -15.5 C 18.390625 -15.945312 18.53125 -16.296875 18.8125 -16.546875 C 19.101562 -16.804688 19.457031 -16.9375 19.875 -16.9375 L 29.046875 -16.9375 C 29.453125 -16.9375 29.789062 -16.800781 30.0625 -16.53125 C 30.34375 -16.257812 30.484375 -15.914062 30.484375 -15.5 L 30.484375 -3.9375 C 30.484375 -3.675781 30.414062 -3.429688 30.28125 -3.203125 C 30.15625 -2.984375 29.984375 -2.796875 29.765625 -2.640625 C 28.347656 -1.679688 26.769531 -0.921875 25.03125 -0.359375 C 23.289062 0.203125 21.472656 0.484375 19.578125 0.484375 Z M 19.578125 0.484375 "/></g></g></g><g fill="#000000" fill-opacity="1"><g transform="translate(370.385846, 459.295128)"><g><path d="M 15.75 -29.90625 L 4.078125 -0.90625 C 3.953125 -0.59375 3.773438 -0.351562 3.546875 -0.1875 C 3.328125 -0.03125 3.070312 0.046875 2.78125 0.046875 C 2.332031 0.046875 1.992188 -0.0703125 1.765625 -0.3125 C 1.546875 -0.550781 1.421875 -0.847656 1.390625 -1.203125 C 1.359375 -1.359375 1.375 -1.550781 1.4375 -1.78125 L 14.109375 -32.78125 C 14.273438 -33.132812 14.476562 -33.382812 14.71875 -33.53125 C 14.957031 -33.675781 15.234375 -33.75 15.546875 -33.75 C 15.867188 -33.75 16.148438 -33.660156 16.390625 -33.484375 C 16.628906 -33.304688 16.8125 -33.070312 16.9375 -32.78125 L 29.5625 -1.921875 C 29.625 -1.722656 29.65625 -1.53125 29.65625 -1.34375 C 29.65625 -0.894531 29.507812 -0.550781 29.21875 -0.3125 C 28.9375 -0.0703125 28.601562 0.046875 28.21875 0.046875 C 27.90625 0.046875 27.628906 -0.0390625 27.390625 -0.21875 C 27.148438 -0.394531 26.960938 -0.625 26.828125 -0.90625 L 14.875 -30.09375 Z M 6.859375 -9.703125 L 8.0625 -12.53125 L 22.9375 -12.53125 L 23.515625 -9.703125 Z M 6.859375 -9.703125 "/></g></g></g><g fill="#000000" fill-opacity="1"><g transform="translate(420.641813, 459.295128)"><g><path d="M 5.953125 -33.59375 C 6.171875 -33.59375 6.398438 -33.546875 6.640625 -33.453125 C 6.890625 -33.359375 7.09375 -33.195312 7.25 -32.96875 L 20.5 -13.109375 L 19.203125 -13.15625 L 32.5 -32.96875 C 32.851562 -33.457031 33.285156 -33.664062 33.796875 -33.59375 C 34.179688 -33.59375 34.507812 -33.457031 34.78125 -33.1875 C 35.050781 -32.914062 35.1875 -32.570312 35.1875 -32.15625 L 35.1875 -1.4375 C 35.1875 -1.050781 35.039062 -0.710938 34.75 -0.421875 C 34.457031 -0.140625 34.109375 0 33.703125 0 C 33.253906 0 32.882812 -0.140625 32.59375 -0.421875 C 32.300781 -0.710938 32.15625 -1.050781 32.15625 -1.4375 L 32.15625 -29.234375 L 33.03125 -29.140625 L 20.875 -10.75 C 20.78125 -10.5625 20.632812 -10.410156 20.4375 -10.296875 C 20.25 -10.179688 20.03125 -10.140625 19.78125 -10.171875 C 19.550781 -10.140625 19.332031 -10.179688 19.125 -10.296875 C 18.914062 -10.410156 18.75 -10.5625 18.625 -10.75 L 6.4375 -29.328125 L 7.34375 -29.953125 L 7.34375 -1.4375 C 7.34375 -1.050781 7.207031 -0.710938 6.9375 -0.421875 C 6.664062 -0.140625 6.320312 0 5.90625 0 C 5.488281 0 5.148438 -0.140625 4.890625 -0.421875 C 4.640625 -0.710938 4.515625 -1.050781 4.515625 -1.4375 L 4.515625 -32.15625 C 4.515625 -32.539062 4.648438 -32.875 4.921875 -33.15625 C 5.191406 -33.445312 5.535156 -33.59375 5.953125 -33.59375 Z M 5.953125 -33.59375 "/></g></g></g><g fill="#000000" fill-opacity="1"><g transform="translate(479.537758, 459.295128)"><g><path d="M 7.53125 -1.484375 C 7.5 -1.066406 7.332031 -0.710938 7.03125 -0.421875 C 6.726562 -0.140625 6.382812 0 6 0 C 5.550781 0 5.191406 -0.140625 4.921875 -0.421875 C 4.648438 -0.710938 4.515625 -1.066406 4.515625 -1.484375 L 4.515625 -32.109375 C 4.515625 -32.523438 4.65625 -32.875 4.9375 -33.15625 C 5.226562 -33.445312 5.597656 -33.59375 6.046875 -33.59375 C 6.429688 -33.59375 6.773438 -33.445312 7.078125 -33.15625 C 7.378906 -32.875 7.53125 -32.523438 7.53125 -32.109375 Z M 7.53125 -1.484375 "/></g></g></g></svg>